<mxfile host="65bd71144e" modified="2020-10-07T18:16:00.797Z" agent="5.0 (Macintosh; Intel Mac OS X 10_15_7) AppleWebKit/537.36 (KHTML, like Gecko) Code/1.49.3 Chrome/83.0.4103.122 Electron/9.2.1 Safari/537.36" version="13.6.5" etag="u_iQd-4WLnknaHZ3MJxY">
    <diagram id="_OjIUwzWrXCVW9ss3eL6" name="Page-1">
        <mxGraphModel dx="994" dy="548" grid="1" gridSize="10" guides="1" tooltips="1" connect="1" arrows="1" fold="1" page="1" pageScale="1" pageWidth="850" pageHeight="1100" math="0" shadow="0">
            <root>
                <mxCell id="0"/>
                <mxCell id="1" parent="0"/>
                <mxCell id="2" value="SceneGenerator" style="swimlane;fontStyle=1;align=center;verticalAlign=top;childLayout=stackLayout;horizontal=1;startSize=30;horizontalStack=0;resizeParent=1;resizeParentMax=0;resizeLast=0;collapsible=1;marginBottom=0;" vertex="1" parent="1">
                    <mxGeometry x="155" y="70" width="540" height="410" as="geometry"/>
                </mxCell>
                <mxCell id="3" value="+ storyline: string&#10;&#10;+ monsterEncount: Encounter?&#10;&#10;+ hero: SuperHero&#10;&#10;+ choicesQestion: String&#10;&#10;+ choiceAnswer: String&#10;&#10;+ sidekick: SuperHero&#10;&#10;+ enemy: Monster" style="text;strokeColor=none;fillColor=none;align=left;verticalAlign=top;spacingLeft=4;spacingRight=4;overflow=hidden;rotatable=0;points=[[0,0.5],[1,0.5]];portConstraint=eastwest;" vertex="1" parent="2">
                    <mxGeometry y="30" width="540" height="210" as="geometry"/>
                </mxCell>
                <mxCell id="4" value="" style="line;strokeWidth=1;fillColor=none;align=left;verticalAlign=middle;spacingTop=-1;spacingLeft=3;spacingRight=3;rotatable=0;labelPosition=right;points=[];portConstraint=eastwest;" vertex="1" parent="2">
                    <mxGeometry y="240" width="540" height="8" as="geometry"/>
                </mxCell>
                <mxCell id="5" value="+ SceneGernerator(String,SuperHero, SuperHero, String, String, Monster): SceneGenerator &#10;&#10; + SceneGernerator(String, String, String): SceneGenerator&#10;&#10; + printStoryline(): void&#10;&#10; + makeChoice():  String &#10;&#10; + startEncounter(): void" style="text;strokeColor=none;fillColor=none;align=left;verticalAlign=top;spacingLeft=4;spacingRight=4;overflow=hidden;rotatable=0;points=[[0,0.5],[1,0.5]];portConstraint=eastwest;" vertex="1" parent="2">
                    <mxGeometry y="248" width="540" height="162" as="geometry"/>
                </mxCell>
            </root>
        </mxGraphModel>
    </diagram>
</mxfile>